<svg xmlns="http://www.w3.org/2000/svg" width="125" height="21" viewBox="0 0 125 21">
  <text id="팔로우_목록" data-name="팔로우 목록" transform="translate(36 17)" fill="#222" font-size="16" font-family="MalgunGothic, Malgun Gothic" letter-spacing="0.05em"><tspan x="0" y="0">팔로우</tspan><tspan y="0" font-family="SegoeUI, Segoe UI"> </tspan><tspan y="0">목록</tspan></text>
  <g id="그룹_4812" data-name="그룹 4812" transform="translate(-997 11939.203)">
    <g id="타원_185" data-name="타원 185" transform="translate(1008 -11938.203)" fill="#fff" stroke="#a49fba" stroke-width="2">
      <circle cx="4" cy="4" r="4" stroke="none"/>
      <circle cx="4" cy="4" r="3" fill="none"/>
    </g>
    <g id="타원_186" data-name="타원 186" transform="translate(999 -11938.203)" fill="#fff" stroke="#a49fba" stroke-width="2">
      <circle cx="4" cy="4" r="4" stroke="none"/>
      <circle cx="4" cy="4" r="3" fill="none"/>
    </g>
    <g id="사각형_1527" data-name="사각형 1527" transform="translate(1006.834 -11930.938)" fill="#fff" stroke="#a49fba" stroke-width="2">
      <path d="M5.417,0h0a5.417,5.417,0,0,1,5.417,5.417v4.643a0,0,0,0,1,0,0H0a0,0,0,0,1,0,0V5.417A5.417,5.417,0,0,1,5.417,0Z" stroke="none"/>
      <path d="M5.417,1h0A4.417,4.417,0,0,1,9.835,5.417v3.4a.245.245,0,0,1-.245.245H1.245A.245.245,0,0,1,1,8.815v-3.4A4.417,4.417,0,0,1,5.417,1Z" fill="none"/>
    </g>
    <g id="사각형_1528" data-name="사각형 1528" transform="translate(997 -11930.938)" fill="#fff" stroke="#a49fba" stroke-width="2">
      <path d="M5.417,0h0a5.417,5.417,0,0,1,5.417,5.417v4.643a0,0,0,0,1,0,0H0a0,0,0,0,1,0,0V5.417A5.417,5.417,0,0,1,5.417,0Z" stroke="none"/>
      <path d="M5.417,1h0A4.417,4.417,0,0,1,9.835,5.417v3.4a.245.245,0,0,1-.245.245H1.245A.245.245,0,0,1,1,8.815v-3.4A4.417,4.417,0,0,1,5.417,1Z" fill="none"/>
    </g>
    <g id="타원_57" data-name="타원 57" transform="translate(1003 -11937.203)" fill="#fff" stroke="#a49fba" stroke-width="2">
      <circle cx="4" cy="4" r="4" stroke="none"/>
      <circle cx="4" cy="4" r="3" fill="none"/>
    </g>
    <g id="사각형_278" data-name="사각형 278" transform="translate(1001 -11930.203)" fill="#fff" stroke="#a49fba" stroke-width="2">
      <path d="M6,0H6a6,6,0,0,1,6,6v5a0,0,0,0,1,0,0H0a0,0,0,0,1,0,0V6A6,6,0,0,1,6,0Z" stroke="none"/>
      <path d="M6,1H6a5,5,0,0,1,5,5V9.722a.278.278,0,0,1-.278.278H1.278A.278.278,0,0,1,1,9.722V6A5,5,0,0,1,6,1Z" fill="none"/>
    </g>
  </g>
</svg>
