<svg xmlns="http://www.w3.org/2000/svg" width="102" height="22.499" viewBox="0 0 102 22.499">
  <text id="정책정보" transform="translate(35 18)" fill="#222" font-size="16" font-family="MalgunGothic, Malgun Gothic" letter-spacing="0.05em"><tspan x="0" y="0">정책정보</tspan></text>
  <path id="clipboard" d="M14.035,2.562H10.693A2.622,2.622,0,0,0,8.02,0,2.622,2.622,0,0,0,5.347,2.562H2A1.965,1.965,0,0,0,0,4.484V18.577A1.965,1.965,0,0,0,2,20.5h12.03a1.965,1.965,0,0,0,2-1.922V4.484A1.965,1.965,0,0,0,14.035,2.562ZM4.01,4.484V5.925a.493.493,0,0,0,.5.48h7.017a.493.493,0,0,0,.5-.48V4.484Z" transform="translate(0.5 0.5)" fill="rgba(255,255,255,0.6)" stroke="#a49fba" stroke-width="2"/>
</svg>
