<svg xmlns="http://www.w3.org/2000/svg" width="122" height="21" viewBox="0 0 122 21">
  <text id="프로필_설정" data-name="프로필 설정" transform="translate(33 17)" fill="#222" font-size="16" font-family="MalgunGothic, Malgun Gothic" letter-spacing="0.05em"><tspan x="0" y="0">프로필</tspan><tspan y="0" font-family="SegoeUI, Segoe UI"> </tspan><tspan y="0">설정</tspan></text>
  <g id="합치기_38" data-name="합치기 38" transform="translate(8465 -15301)" fill="#fff">
    <path d="M -8452.0009765625 15319 L -8464 15319 L -8464 15315.59765625 C -8464 15313.55859375 -8462.9775390625 15311.6767578125 -8461.265625 15310.5654296875 L -8460.2919921875 15309.9326171875 L -8461.0615234375 15309.0634765625 C -8461.751953125 15308.2841796875 -8462.1318359375 15307.275390625 -8462.1318359375 15306.2236328125 C -8462.1318359375 15303.8955078125 -8460.2783203125 15302.001953125 -8457.9990234375 15302.001953125 C -8455.7197265625 15302.001953125 -8453.8662109375 15303.8955078125 -8453.8662109375 15306.2236328125 C -8453.8662109375 15307.275390625 -8454.2470703125 15308.2841796875 -8454.9375 15309.064453125 L -8455.7080078125 15309.93359375 L -8454.734375 15310.56640625 C -8453.0224609375 15311.6787109375 -8452.0009765625 15313.5595703125 -8452.0009765625 15315.59765625 L -8452.0009765625 15319 Z" stroke="none"/>
    <path d="M -8453.0009765625 15318 L -8453.0009765625 15315.59765625 C -8453.0009765625 15313.8994140625 -8453.8525390625 15312.33203125 -8455.279296875 15311.404296875 L -8457.2265625 15310.138671875 L -8455.6865234375 15308.4013671875 C -8455.1572265625 15307.8046875 -8454.8662109375 15307.03125 -8454.8662109375 15306.2236328125 C -8454.8662109375 15304.447265625 -8456.271484375 15303.001953125 -8457.9990234375 15303.001953125 C -8459.7265625 15303.001953125 -8461.1318359375 15304.447265625 -8461.1318359375 15306.2236328125 C -8461.1318359375 15307.03125 -8460.8408203125 15307.8046875 -8460.3134765625 15308.400390625 L -8458.7744140625 15310.1396484375 L -8460.720703125 15311.4033203125 C -8462.1484375 15312.3310546875 -8463 15313.8984375 -8463 15315.59765625 L -8463 15318 L -8453.0009765625 15318 M -8451.0009765625 15320 L -8465 15320 L -8465 15315.59765625 C -8465 15313.1376953125 -8463.73046875 15310.9736328125 -8461.810546875 15309.7265625 C -8462.6318359375 15308.798828125 -8463.1318359375 15307.5712890625 -8463.1318359375 15306.2236328125 C -8463.1318359375 15303.33984375 -8460.8359375 15301.001953125 -8457.9990234375 15301.001953125 C -8455.1650390625 15301.001953125 -8452.8662109375 15303.33984375 -8452.8662109375 15306.2236328125 C -8452.8662109375 15307.5712890625 -8453.3671875 15308.7998046875 -8454.189453125 15309.7275390625 C -8452.26953125 15310.9755859375 -8451.0009765625 15313.138671875 -8451.0009765625 15315.59765625 L -8451.0009765625 15320 Z" stroke="none" fill="#a49fba"/>
  </g>
</svg>
