<svg xmlns="http://www.w3.org/2000/svg" width="49" height="49" viewBox="0 0 49 49">
  <rect id="사각형_1791" data-name="사각형 1791" width="49" height="49" rx="24" fill="#a49fba" opacity="0.8"/>
  <path id="bell" d="M19.738,16.275c-.868-.933-2.492-2.335-2.492-6.931A7.094,7.094,0,0,0,11.5,2.374V1.437a1.437,1.437,0,1,0-2.873,0v.936a7.094,7.094,0,0,0-5.747,6.97c0,4.6-1.624,6-2.492,6.931A1.4,1.4,0,0,0,0,17.25a1.439,1.439,0,0,0,1.442,1.438H18.682a1.438,1.438,0,0,0,1.442-1.437A1.4,1.4,0,0,0,19.738,16.275ZM10.062,23a2.874,2.874,0,0,0,2.874-2.875H7.188A2.874,2.874,0,0,0,10.062,23Z" transform="translate(14.501 12.5)" fill="none" stroke="#fff" stroke-width="2"/>
</svg>
