<svg xmlns="http://www.w3.org/2000/svg" width="48" height="48" viewBox="0 0 48 48">
  <rect id="사각형_1790" data-name="사각형 1790" width="48" height="48" rx="24" fill="#a49fba" opacity="0.8"/>
  <path id="comment-dots" d="M7.33,41.036a1.643,1.643,0,1,0,1.643,1.643A1.641,1.641,0,0,0,7.33,41.036Zm5.75,0a1.643,1.643,0,1,0,1.643,1.643A1.641,1.641,0,0,0,13.08,41.036Zm5.75,0a1.643,1.643,0,1,0,1.643,1.643A1.641,1.641,0,0,0,18.83,41.036ZM13.08,32C5.821,32-.063,36.78-.063,42.679a9.437,9.437,0,0,0,2.716,6.484A13.028,13.028,0,0,1,.271,52.921,1.232,1.232,0,0,0,1.169,55,12.457,12.457,0,0,0,8.31,52.623a15.856,15.856,0,0,0,4.769.734c7.259,0,13.143-4.78,13.143-10.679S20.339,32,13.08,32Z" transform="translate(11.066 -19)" fill="none" stroke="#fff" stroke-width="2"/>
</svg>
