<svg xmlns="http://www.w3.org/2000/svg" width="110" height="40" viewBox="0 0 110 40">
  <g id="그룹_4741" data-name="그룹 4741" transform="translate(-806 -6)">
    <g id="패스_2269" data-name="패스 2269" transform="translate(806 6)" fill="none" opacity="0.8">
      <path d="M20.992,0H89.008C100.6,0,110,8.779,110,19.608v.784C110,31.221,100.6,40,89.008,40H20.992C9.4,40,0,31.221,0,20.392v-.784C0,8.779,9.4,0,20.992,0Z" stroke="none"/>
      <path d="M 20.99237060546875 2 C 18.41106414794922 2 15.90912628173828 2.471355438232422 13.55606079101563 3.400985717773438 C 11.29051971435547 4.296016693115234 9.257583618164063 5.575736999511719 7.513710021972656 7.204601287841797 C 3.958137512207031 10.52566146850586 2 14.9305534362793 2 19.60784530639648 L 2 20.39215469360352 C 2 25.0694465637207 3.958137512207031 29.47433853149414 7.513710021972656 32.7953987121582 C 9.257583618164063 34.42426300048828 11.29051971435547 35.70398330688477 13.55606079101563 36.59901428222656 C 15.90912628173828 37.52864456176758 18.41106414794922 38 20.99237060546875 38 L 89.00762939453125 38 C 91.58893585205078 38 94.09087371826172 37.52864456176758 96.44393920898438 36.59901428222656 C 98.70947265625 35.70398330688477 100.7424163818359 34.42426300048828 102.4862899780273 32.7953987121582 C 106.041862487793 29.47433853149414 108 25.0694465637207 108 20.39215469360352 L 108 19.60784530639648 C 108 14.9305534362793 106.041862487793 10.52566146850586 102.4862899780273 7.204601287841797 C 100.7424163818359 5.575736999511719 98.70947265625 4.296016693115234 96.44393920898438 3.400985717773438 C 94.09087371826172 2.471355438232422 91.58893585205078 2 89.00762939453125 2 L 20.99237060546875 2 M 20.99237060546875 0 L 89.00762939453125 0 C 100.6014022827148 0 110 8.778722763061523 110 19.60784530639648 L 110 20.39215469360352 C 110 31.22127723693848 100.6014022827148 40 89.00762939453125 40 L 20.99237060546875 40 C 9.398597717285156 40 0 31.22127723693848 0 20.39215469360352 L 0 19.60784530639648 C 0 8.778722763061523 9.398597717285156 0 20.99237060546875 0 Z" stroke="none" fill="#f1ad39"/>
    </g>
    <text id="Comic" transform="translate(836 33)" fill="#f1ad39" font-size="16" font-family="SegoeUI, Segoe UI" letter-spacing="0.05em" opacity="0.9"><tspan x="0" y="0">Comic</tspan></text>
  </g>
</svg>
