<svg xmlns="http://www.w3.org/2000/svg" width="129" height="48" viewBox="0 0 129 48">
  <rect id="사각형_1727" data-name="사각형 1727" width="129" height="48" rx="24" fill="#a49fba" opacity="0.8"/>
  <g id="그룹_4540" data-name="그룹 4540" transform="translate(-974 11949.203)">
    <g id="타원_185" data-name="타원 185" transform="translate(1011.999 -11938.203)" fill="#fff" stroke="#a49fba" stroke-width="1">
      <circle cx="5" cy="5" r="5" stroke="none"/>
      <circle cx="5" cy="5" r="4.5" fill="none"/>
    </g>
    <g id="타원_186" data-name="타원 186" transform="translate(998 -11938.203)" fill="#fff" stroke="#a49fba" stroke-width="1">
      <circle cx="5" cy="5" r="5" stroke="none"/>
      <circle cx="5" cy="5" r="4.5" fill="none"/>
    </g>
    <g id="사각형_1527" data-name="사각형 1527" transform="translate(1009.999 -11928.816)" fill="#fff" stroke="#a49fba" stroke-width="1">
      <path d="M7,0H7a7,7,0,0,1,7,7v6a0,0,0,0,1,0,0H0a0,0,0,0,1,0,0V7A7,7,0,0,1,7,0Z" stroke="none"/>
      <path d="M7,.5H7A6.5,6.5,0,0,1,13.5,7v5.324a.176.176,0,0,1-.176.176H.676A.176.176,0,0,1,.5,12.324V7A6.5,6.5,0,0,1,7,.5Z" fill="none"/>
    </g>
    <g id="사각형_1528" data-name="사각형 1528" transform="translate(996 -11928.816)" fill="#fff" stroke="#a49fba" stroke-width="1">
      <path d="M7,0H7a7,7,0,0,1,7,7v6a0,0,0,0,1,0,0H0a0,0,0,0,1,0,0V7A7,7,0,0,1,7,0Z" stroke="none"/>
      <path d="M7,.5H7A6.5,6.5,0,0,1,13.5,7v5.324a.176.176,0,0,1-.176.176H.676A.176.176,0,0,1,.5,12.324V7A6.5,6.5,0,0,1,7,.5Z" fill="none"/>
    </g>
    <g id="타원_57" data-name="타원 57" transform="translate(1005 -11937.203)" fill="#fff" stroke="#a49fba" stroke-width="1">
      <circle cx="5" cy="5" r="5" stroke="none"/>
      <circle cx="5" cy="5" r="4.5" fill="none"/>
    </g>
    <g id="사각형_278" data-name="사각형 278" transform="translate(1002 -11928.203)" fill="#fff" stroke="#a49fba" stroke-width="1">
      <path d="M8,0H8a8,8,0,0,1,8,8v7a0,0,0,0,1,0,0H0a0,0,0,0,1,0,0V8A8,8,0,0,1,8,0Z" stroke="none"/>
      <path d="M8,.5H8A7.5,7.5,0,0,1,15.5,8v6.3a.2.2,0,0,1-.2.2H.7a.2.2,0,0,1-.2-.2V8A7.5,7.5,0,0,1,8,.5Z" fill="none"/>
    </g>
  </g>
  <text id="Follow" transform="translate(56 31)" fill="#222" font-size="16" font-family="SegoeUI-Bold, Segoe UI" font-weight="700"><tspan x="0" y="0">Follow</tspan></text>
</svg>
