<svg xmlns="http://www.w3.org/2000/svg" width="110" height="40" viewBox="0 0 110 40">
  <g id="그룹_4740" data-name="그룹 4740" transform="translate(-1202 -2)" opacity="0.8">
    <g id="패스_2359" data-name="패스 2359" transform="translate(1202 2)" fill="none" opacity="0.8">
      <path d="M20,0H90a20,20,0,0,1,0,40H20A20,20,0,0,1,20,0Z" stroke="none"/>
      <path d="M 20 2 C 15.19203186035156 2 10.67182922363281 3.872322082519531 7.272079467773438 7.272075653076172 C 3.872322082519531 10.67183113098145 2 15.19202995300293 2 20 C 2 24.80796813964844 3.872322082519531 29.32816886901855 7.272079467773438 32.72792434692383 C 10.67182922363281 36.12767791748047 15.19203186035156 38 20 38 L 90 38 C 94.80796813964844 38 99.32817077636719 36.12767791748047 102.7279205322266 32.72792434692383 C 106.1276779174805 29.32816886901855 108 24.80796813964844 108 20 C 108 15.19202995300293 106.1276779174805 10.67183113098145 102.7279205322266 7.272075653076172 C 99.32817077636719 3.872322082519531 94.80796813964844 2 90 2 L 20 2 M 20 0 L 90 0 C 101.0456924438477 0 110 8.954307556152344 110 20 C 110 31.04569244384766 101.0456924438477 40 90 40 L 20 40 C 8.954307556152344 40 0 31.04569244384766 0 20 C 0 8.954307556152344 8.954307556152344 0 20 0 Z" stroke="none" fill="#222"/>
    </g>
    <text id="Illust" transform="translate(1236 29)" fill="#6e6e6e" font-size="16" font-family="SegoeUI, Segoe UI" letter-spacing="0.05em"><tspan x="0" y="0">Illust</tspan></text>
  </g>
</svg>
