<svg xmlns="http://www.w3.org/2000/svg" width="79" height="20" viewBox="0 0 79 20">
  <g id="그룹_4905" data-name="그룹 4905" transform="translate(-356 -1196)">
    <text id="Illust" transform="translate(356 1212)" fill="#222" font-size="15" font-family="SegoeUI, Segoe UI" letter-spacing="0.05em" opacity="0.9"><tspan x="0" y="0">Illust</tspan></text>
    <path id="Selection_Control_Radio_On_Enabled" data-name="Selection Control / Radio / On / Enabled" d="M14-384a9,9,0,0,0-9,9,9,9,0,0,0,9,9,9,9,0,0,0,9-9A9,9,0,0,0,14-384Zm0,16.2A7.2,7.2,0,0,1,6.8-375a7.2,7.2,0,0,1,7.2-7.2,7.2,7.2,0,0,1,7.2,7.2A7.2,7.2,0,0,1,14-367.8Zm0-2.7a4.5,4.5,0,0,0,4.5-4.5,4.5,4.5,0,0,0-4.5-4.5A4.5,4.5,0,0,0,9.5-375,4.5,4.5,0,0,0,14-370.5Z" transform="translate(412 1581)" fill="#222" opacity="0.9"/>
  </g>
</svg>
