<svg xmlns="http://www.w3.org/2000/svg" width="49" height="48" viewBox="0 0 49 48">
  <rect id="사각형_1792" data-name="사각형 1792" width="49" height="48" rx="24" fill="#a49fba" opacity="0.8"/>
  <g id="settings-gear-64" transform="translate(13 13)">
    <path id="패스_108" data-name="패스 108" d="M19.119,7.475,20.7,4.456,18.688,2.444,15.669,4.025a5.15,5.15,0,0,0-1.581-.575L12.937,0H10.063L8.913,3.306a6.008,6.008,0,0,0-1.438.575L4.456,2.3,2.3,4.456,3.881,7.475a6.008,6.008,0,0,0-.575,1.438L0,10.063v2.875l3.306,1.15c.144.575.431,1.006.575,1.581L2.3,18.688,4.313,20.7l3.019-1.581a5.15,5.15,0,0,0,1.581.575L10.063,23h2.875l1.15-3.306c.575-.144,1.006-.431,1.581-.575L18.688,20.7,20.7,18.688l-1.581-3.019a5.15,5.15,0,0,0,.575-1.581L23,12.937V10.063l-3.306-1.15A6.007,6.007,0,0,0,19.119,7.475ZM11.5,15.812A4.236,4.236,0,0,1,7.187,11.5,4.236,4.236,0,0,1,11.5,7.187,4.236,4.236,0,0,1,15.812,11.5,4.236,4.236,0,0,1,11.5,15.812Z" fill="none" stroke="#fff" stroke-width="2"/>
  </g>
</svg>
