<svg xmlns="http://www.w3.org/2000/svg" width="88" height="20" viewBox="0 0 88 20">
  <g id="그룹_4901" data-name="그룹 4901" transform="translate(-489 -1256)">
    <text id="Comic" transform="translate(489 1272)" fill="#a49fba" font-size="15" font-family="SegoeUI, Segoe UI" letter-spacing="0.05em" opacity="0.9"><tspan x="0" y="0">Comic</tspan></text>
    <path id="Selection_Control_Radio_On_Enabled" data-name="Selection Control / Radio / On / Enabled" d="M14-384a9,9,0,0,0-9,9,9,9,0,0,0,9,9,9,9,0,0,0,9-9A9,9,0,0,0,14-384Zm0,16.2A7.2,7.2,0,0,1,6.8-375a7.2,7.2,0,0,1,7.2-7.2,7.2,7.2,0,0,1,7.2,7.2A7.2,7.2,0,0,1,14-367.8Z" transform="translate(554 1641)" fill="#a49fba" opacity="0.8"/>
  </g>
</svg>
