<svg xmlns="http://www.w3.org/2000/svg" width="68" height="20" viewBox="0 0 68 20">
  <g id="그룹_4906" data-name="그룹 4906" transform="translate(-637 -1264)">
    <text id="공개" transform="translate(637 1280)" fill="#a49fba" font-size="15" font-family="MalgunGothic, Malgun Gothic" letter-spacing="0.05em"><tspan x="0" y="0">공개</tspan></text>
    <path id="Selection_Control_Radio_On_Enabled" data-name="Selection Control / Radio / On / Enabled" d="M14-384a9,9,0,0,0-9,9,9,9,0,0,0,9,9,9,9,0,0,0,9-9A9,9,0,0,0,14-384Zm0,16.2A7.2,7.2,0,0,1,6.8-375a7.2,7.2,0,0,1,7.2-7.2,7.2,7.2,0,0,1,7.2,7.2A7.2,7.2,0,0,1,14-367.8Z" transform="translate(682 1649)" fill="#a49fba" opacity="0.8"/>
  </g>
</svg>
