<svg xmlns="http://www.w3.org/2000/svg" width="79" height="20" viewBox="0 0 79 20">
  <g id="그룹_4907" data-name="그룹 4907" transform="translate(-356 -1260)">
    <text id="Illust" transform="translate(356 1276)" fill="#a49fba" font-size="15" font-family="SegoeUI, Segoe UI" letter-spacing="0.05em"><tspan x="0" y="0">Illust</tspan></text>
    <path id="Selection_Control_Radio_On_Enabled" data-name="Selection Control / Radio / On / Enabled" d="M14-384a9,9,0,0,0-9,9,9,9,0,0,0,9,9,9,9,0,0,0,9-9A9,9,0,0,0,14-384Zm0,16.2A7.2,7.2,0,0,1,6.8-375a7.2,7.2,0,0,1,7.2-7.2,7.2,7.2,0,0,1,7.2,7.2A7.2,7.2,0,0,1,14-367.8Z" transform="translate(412 1645)" fill="#a49fba" opacity="0.8"/>
  </g>
</svg>

