<svg id="그룹_2978" data-name="그룹 2978" xmlns="http://www.w3.org/2000/svg" width="23.289" height="23.289" viewBox="0 0 23.289 23.289">
  <g id="패스_2264" data-name="패스 2264" transform="matrix(0.966, 0.259, -0.259, 0.966, 4.32, 0)" fill="none">
    <path d="M8.345,0A8.345,8.345,0,1,1,0,8.345,8.345,8.345,0,0,1,8.345,0Z" stroke="none"/>
    <path d="M 8.345063209533691 3.000002861022949 C 5.397783279418945 3.000002861022949 3.000002861022949 5.397783279418945 3.000002861022949 8.345063209533691 C 3.000002861022949 11.29234313964844 5.397783279418945 13.69012355804443 8.345063209533691 13.69012355804443 C 11.29234313964844 13.69012355804443 13.69012355804443 11.29234313964844 13.69012355804443 8.345063209533691 C 13.69012355804443 5.397783279418945 11.29234313964844 3.000002861022949 8.345063209533691 3.000002861022949 M 8.345063209533691 3.814697265625e-06 C 12.95391273498535 3.814697265625e-06 16.69012260437012 3.736213684082031 16.69012260437012 8.345063209533691 C 16.69012260437012 12.95391273498535 12.95391273498535 16.69012260437012 8.345063209533691 16.69012260437012 C 3.736213684082031 16.69012260437012 3.814697265625e-06 12.95391273498535 3.814697265625e-06 8.345063209533691 C 3.814697265625e-06 3.736213684082031 3.736213684082031 3.814697265625e-06 8.345063209533691 3.814697265625e-06 Z" stroke="none" fill="#a49fba"/>
  </g>
  <path id="패스_405" data-name="패스 405" d="M0,0,4.2,5.04" transform="matrix(0.996, -0.087, 0.087, 0.996, 16.377, 15.979)" fill="none" stroke="#a49fba" stroke-linecap="round" stroke-width="3"/>
</svg>
