<svg xmlns="http://www.w3.org/2000/svg" width="134.128" height="21" viewBox="0 0 134.128 21">
  <text id="계정전환하기" transform="translate(34.128 17)" fill="#a49fba" font-size="16" font-family="MalgunGothic, Malgun Gothic" letter-spacing="0.05em"><tspan x="0" y="0">계정전환하기</tspan></text>
  <path id="random" d="M15.452,42.007a.734.734,0,0,1,0,1.039L13,45.493a.735.735,0,0,1-1.254-.519V43.751h-1.8a.367.367,0,0,1-.268-.117L7.524,41.321l1.632-1.749,1.615,1.73h.979V40.079A.735.735,0,0,1,13,39.56ZM.367,36.407h2.57l1.615,1.73,1.632-1.749L4.026,34.075a.367.367,0,0,0-.268-.117H.367A.367.367,0,0,0,0,34.326v1.714A.367.367,0,0,0,.367,36.407Zm11.383,0V37.63A.735.735,0,0,0,13,38.149L15.452,35.7a.734.734,0,0,0,0-1.039L13,32.216a.735.735,0,0,0-1.254.519v1.223h-1.8a.367.367,0,0,0-.268.117L2.938,41.3H.367A.367.367,0,0,0,0,41.67v1.714a.367.367,0,0,0,.367.367h3.39a.367.367,0,0,0,.268-.117l6.746-7.227Z" transform="translate(0.5 -28.499)" fill="none" stroke="#a49fba" stroke-width="1" opacity="0.7"/>
</svg>
