<svg xmlns="http://www.w3.org/2000/svg" width="102" height="22.499" viewBox="0 0 102 22.499">
  <text id="정책정보" transform="translate(35 18)" fill="#a49fba" font-size="16" font-family="MalgunGothic, Malgun Gothic" letter-spacing="0.05em"><tspan x="0" y="0">정책정보</tspan></text>
  <path id="clipboard" d="M14.035,2.562H10.693A2.622,2.622,0,0,0,8.02,0,2.622,2.622,0,0,0,5.347,2.562H2A1.965,1.965,0,0,0,0,4.484V18.577A1.965,1.965,0,0,0,2,20.5h12.03a1.965,1.965,0,0,0,2-1.922V4.484A1.965,1.965,0,0,0,14.035,2.562ZM8.02,1.6a.98.98,0,0,1,1,.961,1,1,0,0,1-2,0A.98.98,0,0,1,8.02,1.6Zm6.015,16.736a.246.246,0,0,1-.251.24H2.256A.246.246,0,0,1,2,18.337V4.724a.246.246,0,0,1,.251-.24H4.01V5.925a.493.493,0,0,0,.5.48h7.017a.493.493,0,0,0,.5-.48V4.484h1.754a.246.246,0,0,1,.251.24Z" transform="translate(0.5 0.5)" fill="none" stroke="#a49fba" stroke-width="1" opacity="0.7"/>
</svg>
