<svg xmlns="http://www.w3.org/2000/svg" width="122.001" height="21" viewBox="0 0 122.001 21">
  <text id="프로필_설정" data-name="프로필 설정" transform="translate(33.001 17)" fill="#a49fba" font-size="16" font-family="MalgunGothic, Malgun Gothic" letter-spacing="0.05em"><tspan x="0" y="0">프로필</tspan><tspan y="0" font-family="SegoeUI, Segoe UI"> </tspan><tspan y="0">설정</tspan></text>
  <g id="합치기_37" data-name="합치기 37" transform="translate(8465.001 -15301.002)" fill="rgba(255,255,255,0)" opacity="0.8">
    <path d="M -8450.5009765625 15320.8583984375 L -8464.5009765625 15320.8583984375 L -8464.5009765625 15317.4599609375 C -8464.5009765625 15314.62890625 -8462.8154296875 15312.0927734375 -8460.2060546875 15311 L -8459.369140625 15310.6494140625 L -8460.11328125 15310.12890625 C -8461.3779296875 15309.2451171875 -8462.1328125 15307.787109375 -8462.1328125 15306.228515625 C -8462.1328125 15303.623046875 -8460.0537109375 15301.5029296875 -8457.4990234375 15301.5029296875 C -8454.9443359375 15301.5029296875 -8452.8662109375 15303.623046875 -8452.8662109375 15306.228515625 C -8452.8662109375 15307.787109375 -8453.62109375 15309.2451171875 -8454.8857421875 15310.12890625 L -8455.6298828125 15310.6484375 L -8454.79296875 15311 C -8452.185546875 15312.0947265625 -8450.5009765625 15314.6298828125 -8450.5009765625 15317.4599609375 L -8450.5009765625 15320.8583984375 Z" stroke="none"/>
    <path d="M -8451.0009765625 15320.3583984375 L -8451.0009765625 15317.4599609375 C -8451.0009765625 15314.83203125 -8452.5654296875 15312.4775390625 -8454.986328125 15311.4609375 L -8456.66015625 15310.7587890625 L -8455.1728515625 15309.7197265625 C -8454.041015625 15308.9287109375 -8453.3662109375 15307.6240234375 -8453.3662109375 15306.228515625 C -8453.3662109375 15303.8984375 -8455.2197265625 15302.0029296875 -8457.4990234375 15302.0029296875 C -8459.7783203125 15302.0029296875 -8461.6328125 15303.8984375 -8461.6328125 15306.228515625 C -8461.6328125 15307.6240234375 -8460.9580078125 15308.9287109375 -8459.826171875 15309.7197265625 L -8458.337890625 15310.759765625 L -8460.0126953125 15311.4609375 C -8462.435546875 15312.4765625 -8464.0009765625 15314.8310546875 -8464.0009765625 15317.4599609375 L -8464.0009765625 15320.3583984375 L -8451.0009765625 15320.3583984375 M -8450.0009765625 15321.3583984375 L -8465.0009765625 15321.3583984375 L -8465.0009765625 15317.4599609375 C -8465.0009765625 15314.3427734375 -8463.103515625 15311.671875 -8460.3994140625 15310.5390625 C -8461.748046875 15309.5966796875 -8462.6328125 15308.0166015625 -8462.6328125 15306.228515625 C -8462.6328125 15303.33984375 -8460.3330078125 15301.0029296875 -8457.4990234375 15301.0029296875 C -8454.6650390625 15301.0029296875 -8452.3662109375 15303.33984375 -8452.3662109375 15306.228515625 C -8452.3662109375 15308.0166015625 -8453.2509765625 15309.5966796875 -8454.599609375 15310.5390625 C -8451.8984375 15311.6728515625 -8450.0009765625 15314.34375 -8450.0009765625 15317.4599609375 L -8450.0009765625 15321.3583984375 Z" stroke="none" fill="#a49fba"/>
  </g>
</svg>
