<svg xmlns="http://www.w3.org/2000/svg" width="21.019" height="19" viewBox="0 0 21.019 19">
  <g id="comment-dots" transform="translate(0.5 0.5)">
    <path id="comment-dots-2" data-name="comment-dots" d="M9.932,32c5.523,0,10,3.741,10,8.357a7.494,7.494,0,0,1-2.066,5.075,10.224,10.224,0,0,0,1.812,2.941.985.985,0,0,1,.18,1.045.94.94,0,0,1-.863.583,9.309,9.309,0,0,1-5.433-1.86,11.754,11.754,0,0,1-3.628.575c-5.523,0-10-3.741-10-8.357S4.41,32,9.932,32Z" transform="translate(0.066 -32)" fill="#49adef" stroke="#49adef" stroke-width="1" opacity="0.7"/>
  </g>
</svg>
