<svg xmlns="http://www.w3.org/2000/svg" width="20" height="20" viewBox="0 0 20 20">
  <g id="globe" transform="translate(0.5 0.5)" opacity="0.9">
    <path id="globe-2" data-name="globe" d="M12.893,13.823C12.337,10.4,11.027,8,9.5,8s-2.835,2.4-3.391,5.823ZM5.824,17.5a24.005,24.005,0,0,0,.126,2.452h7.1a24,24,0,0,0,.126-2.452,24.005,24.005,0,0,0-.126-2.452H5.95A24.005,24.005,0,0,0,5.824,17.5Zm12.441-3.677A9.521,9.521,0,0,0,12.211,8.4a12.927,12.927,0,0,1,1.916,5.424ZM6.789,8.4a9.515,9.515,0,0,0-6.05,5.424H4.877A12.875,12.875,0,0,1,6.789,8.4Zm11.885,6.65H14.28c.08.8.126,1.628.126,2.452s-.046,1.647-.126,2.452H18.67A9.416,9.416,0,0,0,19,17.5a9.581,9.581,0,0,0-.326-2.452ZM4.6,17.5c0-.824.046-1.647.126-2.452H.33a9.285,9.285,0,0,0,0,4.9H4.72C4.644,19.147,4.6,18.324,4.6,17.5Zm1.513,3.677C6.667,24.6,7.977,27,9.5,27s2.835-2.4,3.391-5.823Zm6.1,5.424a9.53,9.53,0,0,0,6.054-5.424H14.13A12.927,12.927,0,0,1,12.215,26.6ZM.739,21.177A9.521,9.521,0,0,0,6.793,26.6a12.927,12.927,0,0,1-1.916-5.424H.739Z" transform="translate(0 -8)" fill="#036d6c" opacity="0.6"/>
  </g>
</svg>
