<svg xmlns="http://www.w3.org/2000/svg" width="19" height="17.166" viewBox="0 0 19 17.166">
  <path id="패스_407" data-name="패스 407" d="M868-1399l-1.305-1.151c-4.635-4.072-7.695-6.757-7.695-10.053a4.827,4.827,0,0,1,4.95-4.8,5.462,5.462,0,0,1,4.05,1.822,5.462,5.462,0,0,1,4.05-1.822,4.827,4.827,0,0,1,4.95,4.8c0,3.3-3.06,5.982-7.695,10.062Z" transform="translate(-858.5 1415.5)" fill="#fff" stroke="#fff" stroke-width="1"/>
  <path id="패스_2372" data-name="패스 2372" d="M868-1399l-1.305-1.151c-4.635-4.072-7.695-6.757-7.695-10.053a4.827,4.827,0,0,1,4.95-4.8,5.462,5.462,0,0,1,4.05,1.822,5.462,5.462,0,0,1,4.05-1.822,4.827,4.827,0,0,1,4.95,4.8c0,3.3-3.06,5.982-7.695,10.062Z" transform="translate(-858.5 1415.5)" fill="#f7708f" stroke="#fff" stroke-width="1" opacity="0.8"/>
</svg>
