<svg xmlns="http://www.w3.org/2000/svg" width="24" height="24.003" viewBox="0 0 24 24.003">
  <g id="link" opacity="0.8">
    <path id="link-2" data-name="link" d="M29,21.682l-4.963-4.963a3.308,3.308,0,0,0-4.687,0l-.069.072L19,16.515l.072-.072a3.308,3.308,0,0,0,0-4.687L14.112,6.794a3.308,3.308,0,0,0-4.687,0L6.944,9.275a3.308,3.308,0,0,0,0,4.687l4.963,4.963a3.308,3.308,0,0,0,4.687,0l.069-.072.276.276-.072.072a3.308,3.308,0,0,0,0,4.687l4.963,4.963a3.308,3.308,0,0,0,4.687,0L29,26.369a3.308,3.308,0,0,0,0-4.687ZM14.25,16.576,9.287,11.613l2.481-2.481,4.963,4.963-.072.072-1.241-1.241a1.654,1.654,0,1,0-2.338,2.341l1.241,1.241ZM24.175,26.5l-4.963-4.963.072-.069,1.241,1.241a1.654,1.654,0,1,0,2.338-2.341l-1.241-1.241.072-.072,4.963,4.963Z" transform="translate(-5.971 -5.821)" fill="#a49fba"/>
  </g>
</svg>
