<svg xmlns="http://www.w3.org/2000/svg" width="24.746" height="22" viewBox="0 0 24.746 22">
  <path id="edit" d="M18.659,13.371a.345.345,0,0,1,.589.245v6.247a2.063,2.063,0,0,1-2.062,2.062H2.062A2.063,2.063,0,0,1,0,19.863V4.74A2.063,2.063,0,0,1,2.062,2.678h11.75c.305,0,.215.369,0,.589a1.445,1.445,0,0,1-1.083.482L1.239,3.9V20.68H18.28V14.157Zm5.353-7.3L12.73,17.358l-3.884.43a1.775,1.775,0,0,1-1.959-1.959l.43-3.884L18.6.663a2.507,2.507,0,0,1,3.553,0l1.856,1.856a2.517,2.517,0,0,1,0,3.557ZM20.979,7.9,16.962,3.266,7.947,12.452l-.221,4.557,4.817-.5Zm2.684-4.634A4.5,4.5,0,0,0,21.57,1.072a2.86,2.86,0,0,0-2.323.179L17.52,2.9l3.86,4.512L24.007,4.74S24.272,4.268,23.662,3.266Z" transform="translate(0 0.075)" fill="#a49fba" opacity="0.7"/>
</svg>
