<svg xmlns="http://www.w3.org/2000/svg" width="25.025" height="22" viewBox="0 0 25.025 22">
  <path id="comment-dots" d="M6.687,40.25a1.5,1.5,0,1,0,1.5,1.5A1.5,1.5,0,0,0,6.687,40.25Zm5.25,0a1.5,1.5,0,1,0,1.5,1.5A1.5,1.5,0,0,0,11.937,40.25Zm5.25,0a1.5,1.5,0,1,0,1.5,1.5A1.5,1.5,0,0,0,17.187,40.25ZM11.937,32c-6.628,0-12,4.364-12,9.75a8.617,8.617,0,0,0,2.48,5.92A11.9,11.9,0,0,1,.241,51.1a1.125,1.125,0,0,0,.82,1.9,11.374,11.374,0,0,0,6.52-2.17,14.477,14.477,0,0,0,4.355.67c6.628,0,12-4.364,12-9.75S18.565,32,11.937,32Z" transform="translate(0.588 -31.5)" fill="none" stroke="#a49fba" stroke-width="1" opacity="0.8"/>
</svg>

