<svg xmlns="http://www.w3.org/2000/svg" width="25.87" height="23" viewBox="0 0 25.87 23">
  <path id="edit" d="M19.892,13.474c.225-.225.229.441.229.764v6.531a2.156,2.156,0,0,1-2.156,2.156H2.156A2.156,2.156,0,0,1,0,20.769V4.959A2.156,2.156,0,0,1,2.156,2.8H14.44c.319,0-1.506,2.156-1.6,2.156l-10.68.207V20.985H18.568V15.332ZM25.1,6.356,13.308,18.15l-4.06.449A1.856,1.856,0,0,1,7.2,16.551l.449-4.06L19.444.7a2.621,2.621,0,0,1,3.714,0l1.94,1.94a2.631,2.631,0,0,1,0,3.719ZM21.384,7.673,18.329,4.255,9.248,13.474V16.9l3.588-.611Zm2.553-4.148c-.638-1.047-.357-1.3-1.511-1.823s-1.452,0-1.452,0L19.444,3.16l2.982,3.6,2.069-2.188S24.575,4.572,23.937,3.525Z" transform="translate(0 0.075)" fill="#f1ad39" opacity="0.7"/>
</svg>
