<svg xmlns="http://www.w3.org/2000/svg" width="15.066" height="20.177" viewBox="0 0 15.066 20.177">
  <g id="그룹_3463" data-name="그룹 3463" transform="translate(-749 -404.999)" opacity="0.5">
    <g id="빼기_2" data-name="빼기 2" transform="translate(752.051 404.999)" fill="#707070">
      <path d="M 8.653519630432129 6.783602237701416 L 0.4999998211860657 6.783602237701416 L 0.4999998211860657 4.5766921043396 L 0.4999998211860657 4.464538097381592 L 0.505689799785614 4.357192039489746 C 0.5609198212623596 3.315252065658569 1.008919835090637 2.344092130661011 1.767179846763611 1.622622013092041 C 2.528159856796265 0.898702085018158 3.525969743728638 0.5000020861625671 4.576759815216064 0.5000020861625671 C 5.62746000289917 0.5000020861625671 6.625219821929932 0.898702085018158 7.386250019073486 1.62266206741333 C 8.144439697265625 2.344141960144043 8.59237003326416 3.315282106399536 8.647489547729492 4.357131958007813 L 8.653519630432129 4.471134185791016 L 8.653519630432129 6.783602237701416 Z" stroke="none"/>
      <path d="M 8.153519630432129 6.283602237701416 L 8.153519630432129 4.484318733215332 L 8.148189544677734 4.383552074432373 C 8.099849700927734 3.469802141189575 7.706830024719238 2.61791205406189 7.041629791259766 1.984922051429749 C 6.373970031738281 1.349792122840881 5.498600006103516 1.000002026557922 4.576759815216064 1.000002026557922 C 3.654829740524292 1.000002026557922 2.779409885406494 1.349782109260559 2.111839771270752 1.984852075576782 C 1.446509838104248 2.617902040481567 1.053429841995239 3.469812154769897 1.004989862442017 4.383652210235596 L 0.9999998211860657 4.477793216705322 L 0.9999998211860657 4.5766921043396 L 0.9999998211860657 6.283602237701416 L 8.153519630432129 6.283602237701416 M 9.153519630432129 7.283602237701416 L -1.847839428137377e-07 7.283602237701416 L -1.847839428137377e-07 4.5766921043396 L -1.847839428137377e-07 4.330721855163574 L 0.006389815360307693 4.330721855163574 C 0.06840981543064117 3.160642147064209 0.5713698267936707 2.070252180099487 1.42251980304718 1.260392069816589 C 2.276919841766357 0.4476020634174347 3.397019863128662 2.072524921459262e-06 4.576759815216064 2.072524921459262e-06 C 5.756429672241211 2.072524921459262e-06 6.87645959854126 0.4476020634174347 7.730869770050049 1.260392069816589 C 8.582010269165039 2.070322036743164 9.08489990234375 3.160772085189819 9.14678955078125 4.330721855163574 L 9.153519630432129 4.330721855163574 L 9.153519630432129 7.283472061157227 L 9.153519630432129 7.283602237701416 Z" stroke="none" fill="#707070"/>
    </g>
    <g id="빼기_3" data-name="빼기 3" transform="translate(753.626 406.574)" fill="#fff">
      <path d="M 5.503835678100586 5.110220909118652 L 0.4999954402446747 5.110220909118652 L 0.4999954402446747 3.525141000747681 L 0.4999954402446747 3.427055597305298 L 0.5037054419517517 3.358290910720825 C 0.5391954779624939 2.571950912475586 0.8239954710006714 1.842510938644409 1.305655479431152 1.30436098575592 C 1.769875407218933 0.7856609225273132 2.37228536605835 0.5000009536743164 3.001915454864502 0.5000009536743164 C 3.631545543670654 0.5000009536743164 4.233955383300781 0.7856609225273132 4.698165416717529 1.304350972175598 C 5.179695606231689 1.842420935630798 5.464435577392578 2.571861028671265 5.499915599822998 3.358290910720825 L 5.503835678100586 3.44518256187439 L 5.503835678100586 5.110220909118652 Z" stroke="none"/>
      <path d="M 5.003835678100586 4.610220909118652 L 5.003835678100586 3.456408500671387 L 5.000425338745117 3.380820989608765 C 4.970125675201416 2.709220886230469 4.73045539855957 2.090200901031494 4.325595378875732 1.63779091835022 C 3.957505464553833 1.226510882377625 3.487415552139282 1.000000953674316 3.001915454864502 1.000000953674316 C 2.516415357589722 1.000000953674316 2.046325445175171 1.226510882377625 1.67822539806366 1.637810945510864 C 1.273225426673889 2.090311050415039 1.033505439758301 2.709321022033691 1.003195405006409 3.380831003189087 L 0.9999954700469971 3.445420742034912 L 0.9999954700469971 3.525141000747681 L 0.9999954700469971 4.610220909118652 L 5.003835678100586 4.610220909118652 M 6.003835678100586 5.610220909118652 L -4.545135652733734e-06 5.610220909118652 L -4.545135652733734e-06 3.525141000747681 L -4.545135652733734e-06 3.335750818252563 L 0.004215454682707787 3.335750818252563 C 0.04488545656204224 2.434490919113159 0.3748354613780975 1.59463095664978 0.9330854415893555 0.9709009528160095 C 1.49344539642334 0.3447809219360352 2.2281653881073 9.313964710599976e-07 3.001915454864502 9.313964710599976e-07 C 3.775665521621704 9.313964710599976e-07 4.510385513305664 0.3447809219360352 5.070745468139648 0.9709009528160095 C 5.629055500030518 1.594770908355713 5.95874547958374 2.434551000595093 5.999405384063721 3.335750818252563 L 6.003835678100586 3.335750818252563 L 6.003835678100586 5.610080718994141 L 6.003835678100586 5.610220909118652 Z" stroke="none" fill="#707070"/>
    </g>
    <g id="패스_2231" data-name="패스 2231" transform="translate(749 410.996)" fill="#707070">
      <path d="M 10.68979644775391 13.67945861816406 L 4.375876903533936 13.67945861816406 C 2.238706827163696 13.67945861816406 0.4999969005584717 11.92879867553711 0.4999969005584717 9.776948928833008 L 0.4999969005584717 4.402508735656738 C 0.4999969005584717 2.250658750534058 2.238706827163696 0.4999988377094269 4.375876903533936 0.4999988377094269 L 10.68979644775391 0.4999988377094269 C 12.82696723937988 0.4999988377094269 14.56567668914795 2.250658750534058 14.56567668914795 4.402508735656738 L 14.56567668914795 9.776948928833008 C 14.56567668914795 11.92879867553711 12.82696723937988 13.67945861816406 10.68979644775391 13.67945861816406 Z" stroke="none"/>
      <path d="M 4.375877380371094 0.9999990463256836 C 2.514407157897949 0.9999990463256836 0.9999971389770508 2.526358604431152 0.9999971389770508 4.402508735656738 L 0.9999971389770508 9.776948928833008 C 0.9999971389770508 11.65309906005859 2.514407157897949 13.17945861816406 4.375877380371094 13.17945861816406 L 10.68979644775391 13.17945861816406 C 12.55126667022705 13.17945861816406 14.06567668914795 11.65309906005859 14.06567668914795 9.776948928833008 L 14.06567668914795 4.402508735656738 C 14.06567668914795 2.526358604431152 12.55126667022705 0.9999990463256836 10.68979644775391 0.9999990463256836 L 4.375877380371094 0.9999990463256836 M 4.375877380371094 -9.5367431640625e-07 L 10.68979644775391 -9.5367431640625e-07 C 13.10652732849121 -9.5367431640625e-07 15.06567668914795 1.971068382263184 15.06567668914795 4.402508735656738 L 15.06567668914795 9.776948928833008 C 15.06567668914795 12.20838928222656 13.10652732849121 14.17945861816406 10.68979644775391 14.17945861816406 L 4.375877380371094 14.17945861816406 C 1.959146499633789 14.17945861816406 -2.86102294921875e-06 12.20838928222656 -2.86102294921875e-06 9.776948928833008 L -2.86102294921875e-06 4.402508735656738 C -2.86102294921875e-06 1.971068382263184 1.959146499633789 -9.5367431640625e-07 4.375877380371094 -9.5367431640625e-07 Z" stroke="none" fill="#707070"/>
    </g>
    <g id="합치기_1" data-name="합치기 1" transform="translate(753.431 414.644)" fill="#fff">
      <path d="M 3.102299928665161 7.960000038146973 C 2.600359916687012 7.960000038146973 2.192000150680542 7.551640033721924 2.192000150680542 7.049699783325195 L 2.192000150680542 5.865449905395508 L 2.192000150680542 5.5594801902771 L 1.919560074806213 5.420229911804199 C 1.04394006729126 4.972690105438232 0.5000000596046448 4.08450984954834 0.5000000596046448 3.102299928665161 C 0.5000000596046448 1.667389988899231 1.667389988899231 0.5 3.102299928665161 0.5 C 4.536719799041748 0.5 5.703700065612793 1.667389988899231 5.703700065612793 3.102299928665161 C 5.703700065612793 4.084569931030273 5.159749984741211 4.972809791564941 4.284130096435547 5.420390129089355 L 4.01170015335083 5.559639930725098 L 4.01170015335083 5.865600109100342 L 4.01170015335083 7.049699783325195 C 4.01170015335083 7.551640033721924 3.603739976882935 7.960000038146973 3.102299928665161 7.960000038146973 Z" stroke="none"/>
      <path d="M 3.102299928665161 7.460000038146973 C 3.32804012298584 7.460000038146973 3.511699914932251 7.27593994140625 3.511699914932251 7.049699783325195 L 3.511699914932251 5.865600109100342 L 3.511699914932251 5.253690242767334 L 4.056560039520264 4.975180149078369 C 4.764140129089355 4.613500118255615 5.203700065612793 3.895849943161011 5.203700065612793 3.102299928665161 C 5.203700065612793 1.943089962005615 4.261020183563232 1 3.102299928665161 1 C 1.943090081214905 1 1 1.943089962005615 1 3.102299928665161 C 1 3.895790100097656 1.439550042152405 4.613369941711426 2.147109985351563 4.975019931793213 L 2.692000150680542 5.253520011901855 L 2.692000150680542 5.865449905395508 L 2.692000150680542 7.049699783325195 C 2.692000150680542 7.27593994140625 2.876060009002686 7.460000038146973 3.102299928665161 7.460000038146973 M 3.102299928665161 8.460000038146973 C 2.322900056838989 8.460000038146973 1.692000031471252 7.828199863433838 1.692000031471252 7.049699783325195 L 1.692000031471252 5.865449905395508 C 0.6875500082969666 5.352059841156006 3.280639759850601e-08 4.307380199432373 3.280639759850601e-08 3.102299928665161 C 3.280639759850601e-08 1.388700008392334 1.388700008392334 1.907348590179936e-08 3.102299928665161 1.907348590179936e-08 C 4.815000057220459 1.907348590179936e-08 6.203700065612793 1.388700008392334 6.203700065612793 3.102299928665161 C 6.203700065612793 4.307479858398438 5.515980243682861 5.352260112762451 4.51170015335083 5.865600109100342 L 4.51170015335083 7.049699783325195 C 4.51170015335083 7.828199863433838 3.880800008773804 8.460000038146973 3.102299928665161 8.460000038146973 Z" stroke="none" fill="#707070"/>
    </g>
  </g>
</svg>
