<svg xmlns="http://www.w3.org/2000/svg" width="17.265" height="19" viewBox="0 0 17.265 19">
  <g id="구성_요소_95_15" data-name="구성 요소 95 – 15" transform="translate(0.5 0.5)">
    <path id="패스_412" data-name="패스 412" d="M825.554-1403.277a2.631,2.631,0,0,0-1.771.7l-6.443-3.75a2.957,2.957,0,0,0,.081-.632,2.959,2.959,0,0,0-.081-.633l6.371-3.714a2.7,2.7,0,0,0,1.843.732,2.707,2.707,0,0,0,2.711-2.711,2.707,2.707,0,0,0-2.711-2.711,2.707,2.707,0,0,0-2.711,2.711,2.957,2.957,0,0,0,.081.632l-6.37,3.714a2.7,2.7,0,0,0-1.843-.732,2.707,2.707,0,0,0-2.711,2.711,2.707,2.707,0,0,0,2.711,2.711,2.7,2.7,0,0,0,1.843-.732l6.434,3.759a2.549,2.549,0,0,0-.072.587,2.642,2.642,0,0,0,2.639,2.639,2.642,2.642,0,0,0,2.639-2.639A2.642,2.642,0,0,0,825.554-1403.277Z" transform="translate(-812 1416)" fill="none" stroke="#a49fba" stroke-width="1" opacity="0.7"/>
  </g>
</svg>
