<svg xmlns="http://www.w3.org/2000/svg" width="14" height="14" viewBox="0 0 14 14">
  <path id="globe" d="M9.5,12.29C9.091,9.77,8.125,8,7,8S4.912,9.77,4.5,12.29ZM4.291,15a17.688,17.688,0,0,0,.093,1.806H9.616A17.687,17.687,0,0,0,9.709,15a17.688,17.688,0,0,0-.093-1.806H4.384A17.688,17.688,0,0,0,4.291,15Zm9.167-2.71A7.016,7.016,0,0,0,9,8.294a9.525,9.525,0,0,1,1.412,4ZM5,8.294a7.011,7.011,0,0,0-4.458,4H3.594A9.487,9.487,0,0,1,5,8.294Zm8.757,4.9H10.522c.059.593.093,1.2.093,1.806s-.034,1.214-.093,1.806h3.235A6.938,6.938,0,0,0,14,15a7.059,7.059,0,0,0-.24-1.806ZM3.388,15c0-.607.034-1.214.093-1.806H.243a6.842,6.842,0,0,0,0,3.613H3.478C3.422,16.214,3.388,15.607,3.388,15ZM4.5,17.71C4.912,20.23,5.878,22,7,22s2.089-1.77,2.5-4.29Zm4.5,4a7.022,7.022,0,0,0,4.461-4H10.412A9.525,9.525,0,0,1,9,21.706Zm-8.455-4a7.016,7.016,0,0,0,4.461,4,9.525,9.525,0,0,1-1.412-4H.545Z" transform="translate(0 -8)" fill="#a49fba" opacity="0.8"/>
</svg>
