<svg xmlns="http://www.w3.org/2000/svg" width="15.008" height="13.454" viewBox="0 0 15.008 13.454">
  <path id="edit" d="M10.562,7.537a.2.2,0,0,1,.333.139v3.536a1.168,1.168,0,0,1-1.167,1.167H1.167A1.168,1.168,0,0,1,0,11.212V2.651A1.168,1.168,0,0,1,1.167,1.483H7.819c.173,0,.122.209,0,.333a.818.818,0,0,1-.613.273L.7,2.177v9.5h9.647V7.982Zm3.03-4.13L7.206,9.794l-2.2.243A1,1,0,0,1,3.9,8.928l.243-2.2L10.528.343a1.419,1.419,0,0,1,2.011,0L13.59,1.393a1.425,1.425,0,0,1,0,2.014ZM11.876,4.44,9.6,1.817l-5.1,5.2L4.374,9.6,7.1,9.315Zm1.519-2.623A2.549,2.549,0,0,0,12.211.574a1.619,1.619,0,0,0-1.315.1l-.978.932L12.1,4.162,13.59,2.651S13.74,2.384,13.395,1.817Z" transform="translate(0.5 0.575)" fill="none" stroke="#a49fba" stroke-width="1" opacity="0.8"/>
</svg>
