<svg xmlns="http://www.w3.org/2000/svg" xmlns:xlink="http://www.w3.org/1999/xlink" width="90" height="90" viewBox="0 0 90 90">
  <defs>
    <filter id="패스_2255" x="0" y="0" width="90" height="90" filterUnits="userSpaceOnUse">
      <feOffset dy="3" input="SourceAlpha"/>
      <feGaussianBlur stdDeviation="3" result="blur"/>
      <feFlood flood-opacity="0.161"/>
      <feComposite operator="in" in2="blur"/>
      <feComposite in="SourceGraphic"/>
    </filter>
  </defs>
  <g id="구성_요소_121_5" data-name="구성 요소 121 – 5" transform="translate(9 6)">
    <g transform="matrix(1, 0, 0, 1, -9, -6)" filter="url(#패스_2255)">
      <path id="패스_2255-2" data-name="패스 2255" d="M36,0A36,36,0,1,1,0,36,36,36,0,0,1,36,0Z" transform="translate(9 6)" fill="#fff" opacity="0.9"/>
    </g>
    <path id="edit" d="M32.228,23.15a.6.6,0,0,1,1.017.423v10.79a3.563,3.563,0,0,1-3.562,3.562H3.562A3.563,3.563,0,0,1,0,34.363V8.242A3.563,3.563,0,0,1,3.562,4.68h20.3c.527,0,.371.638,0,1.017a2.5,2.5,0,0,1-1.87.832L2.141,6.8V35.774H31.575V24.508Zm9.246-12.6L21.988,30.037l-6.708.742A3.066,3.066,0,0,1,11.9,27.395l.742-6.708L32.125,1.2a4.331,4.331,0,0,1,6.137,0l3.206,3.206a4.347,4.347,0,0,1,.007,6.144ZM36.236,13.7,29.3,5.7,13.727,21.563l-.381,7.871,8.321-.857Zm4.635-8c-1.054-1.73-1.707-2.92-3.613-3.79a4.941,4.941,0,0,0-4.013.309L30.261,5.059l6.668,7.793,4.538-4.61S41.925,7.427,40.871,5.7Z" transform="translate(19.5 15.575)" fill="#f1ad39" stroke="#f1ad39" stroke-width="1" opacity="0.8"/>
  </g>
</svg>
